<?xml version="1.0" standalone="no"?>
<!DOCTYPE svg PUBLIC "-//W3C//DTD SVG 20010904//EN"
 "http://www.w3.org/TR/2001/REC-SVG-20010904/DTD/svg10.dtd">
<svg version="1.0" xmlns="http://www.w3.org/2000/svg"
 width="2143.000000pt" height="2143.000000pt" viewBox="0 0 2143.000000 2143.000000"
 preserveAspectRatio="xMidYMid meet">
<metadata>
Created by potrace 1.11, written by Peter Selinger 2001-2013
</metadata>
<g transform="translate(0.000000,2143.000000) scale(0.100000,-0.100000)"
fill="#000000" stroke="none">
<path d="M10529 21426 c-2 -2 -47 -6 -99 -10 -109 -8 -141 -11 -265 -33 -49
-8 -103 -17 -120 -20 -61 -9 -310 -75 -408 -107 -218 -72 -509 -202 -660 -295
-37 -22 -69 -41 -72 -41 -4 0 -205 -135 -289 -194 -212 -150 -526 -453 -705
-681 -39 -49 -75 -94 -79 -100 -52 -65 -372 -544 -372 -558 0 -2 -24 -44 -54
-93 -100 -167 -188 -329 -328 -609 -140 -279 -248 -489 -338 -660 -26 -49
-116 -225 -200 -390 -84 -165 -214 -419 -288 -565 -75 -146 -202 -395 -284
-555 -187 -367 -1435 -2862 -1587 -3175 -63 -129 -190 -388 -281 -575 -92
-187 -197 -401 -232 -475 -36 -74 -107 -220 -158 -325 -114 -235 -175 -362
-385 -800 -142 -296 -165 -345 -244 -508 -45 -93 -81 -170 -81 -172 0 -2 -43
-92 -95 -200 -52 -108 -95 -198 -95 -200 0 -2 -27 -61 -61 -132 -129 -271
-147 -310 -172 -363 -14 -30 -51 -109 -82 -175 -31 -66 -71 -149 -87 -185 -58
-125 -81 -176 -126 -270 -24 -52 -98 -210 -162 -350 -65 -140 -134 -289 -153
-330 -67 -145 -100 -217 -182 -400 -45 -102 -104 -229 -129 -283 -25 -55 -46
-100 -46 -102 0 -2 -18 -43 -41 -92 -43 -94 -52 -114 -97 -214 -16 -35 -41
-89 -55 -119 -13 -30 -40 -91 -60 -135 -19 -44 -44 -100 -55 -125 -77 -168
-235 -569 -285 -725 -69 -213 -142 -490 -171 -650 -3 -16 -7 -41 -10 -55 -13
-70 -36 -222 -41 -275 -4 -33 -8 -71 -10 -84 -12 -69 -20 -272 -20 -486 0
-217 3 -284 21 -480 5 -55 38 -284 48 -330 2 -11 12 -56 21 -100 165 -805 582
-1598 1159 -2204 34 -35 66 -68 72 -75 18 -19 226 -210 269 -248 169 -146 461
-355 620 -444 11 -6 63 -36 115 -66 147 -84 556 -276 625 -292 6 -2 24 -9 40
-16 17 -6 91 -32 165 -57 198 -65 321 -96 631 -158 9 -2 74 -11 145 -19 71 -9
143 -18 159 -21 191 -26 618 -26 865 1 19 2 58 6 85 8 28 3 66 8 85 11 19 3
53 8 75 11 134 18 271 42 395 69 295 63 732 199 965 300 225 98 595 277 630
305 6 4 30 19 55 32 233 126 548 329 825 531 169 124 178 131 349 270 157 127
243 199 356 300 19 17 55 48 80 70 252 224 858 828 1045 1042 l26 30 117 -125
c126 -135 607 -618 737 -740 250 -235 524 -470 795 -681 491 -383 1084 -753
1520 -947 271 -120 452 -189 710 -268 124 -38 337 -95 405 -108 11 -2 77 -16
146 -29 121 -25 275 -49 384 -62 28 -3 59 -8 70 -10 11 -2 54 -6 95 -10 41 -3
116 -10 165 -14 97 -9 466 -6 580 3 95 8 163 15 205 21 19 2 53 6 75 9 368 46
744 151 1120 311 372 159 614 292 902 497 105 75 262 196 283 218 3 3 37 32
75 64 65 56 303 291 386 382 170 186 403 507 544 749 204 349 383 786 480
1172 36 142 40 161 51 218 3 17 9 48 14 70 5 22 11 58 14 80 4 23 9 52 11 65
3 14 7 39 10 55 3 17 10 50 15 75 24 112 44 250 57 395 15 156 8 604 -11 725
-9 57 -17 117 -22 160 -3 25 -9 61 -14 80 -5 19 -12 54 -15 77 -3 23 -13 72
-21 110 -9 37 -18 79 -21 93 -11 50 -53 207 -78 290 -14 47 -27 90 -29 95 -25
89 -146 406 -211 550 -7 17 -33 80 -58 140 -25 61 -54 130 -65 155 -11 25 -82
182 -158 350 -144 320 -175 389 -230 508 -19 40 -34 74 -34 77 0 2 -15 37 -34
77 -19 40 -46 100 -61 133 -15 33 -30 62 -35 65 -4 3 -20 32 -35 65 -15 33
-38 83 -51 110 -13 28 -81 176 -152 330 -72 154 -148 318 -170 365 -21 47 -65
141 -97 210 -31 69 -77 167 -101 218 -24 51 -59 125 -78 165 -43 93 -161 346
-219 467 -42 90 -67 142 -187 395 -29 61 -68 144 -87 185 -19 41 -62 131 -95
200 -33 69 -79 166 -103 215 -24 50 -71 149 -105 220 -35 72 -84 175 -110 230
-57 121 -154 322 -262 545 -45 91 -104 215 -133 275 -77 161 -318 654 -650
1330 -330 674 -1161 2329 -1475 2940 -48 94 -134 260 -190 370 -56 110 -135
263 -175 340 -90 174 -214 414 -338 656 -52 102 -109 210 -125 240 -16 30
-109 214 -207 409 -157 312 -262 512 -295 560 -6 8 -14 25 -20 37 -5 12 -27
52 -50 88 -22 37 -40 69 -40 71 0 20 -269 434 -353 544 -49 64 -127 160 -137
170 -5 5 -93 110 -125 149 -143 177 -443 456 -642 598 -345 246 -698 416
-1098 528 -66 18 -147 39 -180 46 -33 7 -64 14 -70 15 -5 1 -28 5 -50 8 -23 4
-52 8 -65 11 -14 3 -63 10 -110 15 -47 6 -98 13 -115 16 -34 6 -531 15 -536
10z m425 -1420 c50 -5 99 -10 110 -12 12 -2 48 -9 81 -14 213 -35 388 -92 599
-194 116 -56 335 -192 391 -243 12 -10 50 -43 85 -72 236 -199 494 -530 690
-886 18 -33 44 -80 58 -105 14 -25 52 -97 85 -160 33 -63 80 -153 105 -200 24
-47 81 -155 125 -240 44 -85 104 -202 135 -260 82 -157 233 -451 396 -770 193
-377 1546 -3082 1711 -3420 71 -146 204 -418 296 -605 91 -187 198 -405 237
-485 38 -80 109 -226 157 -325 48 -99 116 -238 150 -310 35 -71 102 -211 150
-310 86 -177 161 -334 265 -550 29 -60 77 -162 107 -225 86 -178 172 -357 213
-445 21 -44 66 -138 100 -210 34 -71 78 -164 97 -205 20 -41 67 -140 104 -218
38 -79 69 -145 69 -147 0 -1 30 -65 66 -140 36 -76 80 -170 99 -209 78 -168
190 -407 225 -481 54 -114 192 -410 277 -595 14 -30 66 -140 114 -243 49 -104
92 -200 96 -215 3 -14 34 -84 68 -156 71 -148 125 -266 125 -271 0 -2 18 -43
40 -90 22 -47 40 -88 40 -90 0 -2 13 -32 29 -67 16 -35 49 -108 74 -163 25
-55 67 -147 94 -205 28 -58 83 -181 123 -275 40 -93 78 -183 85 -200 92 -211
179 -519 230 -810 45 -257 53 -374 50 -660 -2 -143 -5 -269 -8 -280 -5 -22
-14 -84 -22 -155 -6 -47 -12 -88 -20 -130 -3 -14 -7 -40 -10 -58 -13 -78 -86
-346 -123 -449 -104 -288 -249 -564 -427 -807 -47 -65 -91 -124 -98 -131 -7
-6 -30 -34 -52 -61 -49 -61 -279 -292 -361 -362 -76 -66 -226 -178 -302 -227
-31 -21 -68 -45 -82 -54 -14 -10 -71 -43 -127 -75 -361 -201 -763 -334 -1153
-381 -91 -11 -140 -16 -205 -20 -92 -6 -354 -7 -430 0 -94 7 -188 16 -215 20
-14 2 -47 6 -75 10 -27 3 -97 15 -155 27 -58 11 -116 22 -130 24 -59 11 -296
76 -406 112 -541 179 -1156 527 -1731 980 -130 102 -350 285 -414 343 -14 13
-45 42 -70 63 -202 178 -613 582 -860 846 -177 188 -209 223 -209 232 0 4 13
22 29 40 26 30 100 122 154 192 12 16 33 43 47 60 82 99 453 594 528 703 7 10
40 56 73 103 185 258 669 1009 669 1037 0 4 6 14 14 22 7 9 28 43 46 76 17 33
35 65 40 70 7 10 16 25 133 240 479 883 811 1803 932 2585 51 333 60 459 60
840 0 429 -12 559 -77 845 -86 378 -225 721 -433 1063 -167 276 -434 585 -700
812 -88 75 -336 260 -349 260 -2 0 -30 17 -62 39 -193 127 -557 295 -804 370
-58 18 -116 36 -130 41 -22 7 -133 36 -179 45 -9 2 -36 8 -61 14 -98 22 -294
53 -419 66 -222 23 -650 23 -831 0 -14 -1 -50 -6 -80 -9 -62 -8 -195 -29 -245
-40 -11 -2 -56 -12 -100 -21 -220 -45 -522 -145 -740 -244 -543 -248 -1000
-609 -1362 -1076 -81 -105 -173 -240 -173 -254 0 -5 -4 -11 -8 -13 -22 -9
-252 -456 -252 -489 0 -8 -4 -19 -9 -25 -29 -32 -145 -410 -187 -609 -11 -55
-34 -184 -38 -215 -2 -19 -7 -55 -10 -80 -22 -157 -30 -302 -30 -530 -1 -212
7 -363 28 -525 14 -112 18 -147 32 -227 12 -71 63 -318 78 -378 2 -8 23 -89
46 -180 91 -364 269 -887 396 -1168 13 -29 24 -54 24 -57 0 -2 15 -36 34 -77
18 -40 44 -95 56 -123 28 -63 177 -374 190 -397 6 -10 36 -68 69 -131 157
-302 377 -678 599 -1027 60 -93 310 -467 355 -530 23 -33 80 -114 127 -180 70
-99 361 -492 460 -620 62 -81 225 -286 237 -298 18 -19 17 -24 -19 -63 -18
-19 -76 -82 -128 -140 -291 -319 -661 -685 -968 -957 -421 -372 -882 -702
-1352 -966 -133 -75 -450 -226 -585 -279 -209 -82 -491 -168 -635 -194 -14 -2
-41 -8 -60 -13 -56 -14 -287 -49 -380 -57 -167 -15 -623 -8 -725 11 -11 2 -45
7 -76 10 -31 4 -67 9 -80 11 -13 3 -36 7 -52 10 -550 101 -1032 326 -1462 681
-366 303 -687 726 -869 1144 -16 36 -37 84 -47 106 -19 43 -96 269 -123 364
-28 95 -69 309 -81 415 -17 145 -20 222 -20 435 1 135 6 290 13 345 7 55 15
115 17 132 13 101 42 246 76 378 35 139 157 515 192 595 8 19 27 61 41 93 14
32 26 60 26 62 0 3 16 39 35 81 19 41 35 77 35 79 0 7 146 335 233 525 84 182
113 246 197 425 23 50 58 124 77 165 19 41 57 120 83 175 26 55 59 125 73 155
39 87 154 334 213 458 30 63 54 115 54 117 0 1 32 69 71 151 38 82 79 167 89
189 10 22 70 150 133 285 113 241 155 331 264 560 75 157 107 224 108 230 1 3
27 57 57 120 31 63 78 162 105 220 28 58 74 155 103 215 29 61 69 146 90 190
21 44 86 178 144 299 58 120 106 219 106 221 0 1 58 121 129 267 71 146 149
307 174 359 47 99 97 201 607 1244 161 330 1055 2119 1250 2500 223 438 381
747 483 945 49 96 126 245 170 330 43 85 105 205 137 265 32 61 107 207 167
325 61 118 131 253 155 300 25 47 85 162 133 255 145 280 337 647 375 716 248
456 521 813 775 1014 28 22 52 42 55 45 18 18 121 90 129 90 5 0 11 3 13 8 7
15 133 90 267 157 127 64 371 147 496 170 22 4 51 9 65 12 180 35 400 45 604
29z m21 -7789 c11 -3 49 -8 85 -12 36 -4 74 -9 85 -11 11 -3 56 -11 100 -20
266 -51 570 -176 804 -332 441 -292 775 -801 877 -1337 4 -22 8 -49 9 -60 1
-11 8 -54 14 -95 23 -142 26 -195 26 -425 0 -204 -6 -322 -21 -435 -9 -67 -34
-225 -39 -250 -3 -14 -7 -37 -10 -52 -2 -15 -6 -35 -9 -45 -3 -10 -7 -29 -10
-43 -10 -61 -70 -286 -107 -405 -120 -385 -252 -711 -460 -1130 -99 -201 -127
-254 -229 -440 -105 -190 -345 -590 -431 -717 -21 -31 -39 -60 -39 -63 0 -3
-5 -11 -10 -18 -6 -7 -69 -100 -142 -207 -114 -171 -378 -545 -414 -589 -7 -9
-55 -72 -106 -141 -51 -69 -95 -127 -98 -130 -3 -3 -18 -23 -35 -45 -16 -22
-31 -42 -35 -45 -3 -3 -18 -22 -33 -43 -16 -20 -32 -35 -37 -32 -15 9 -261
330 -417 544 -79 108 -146 201 -151 206 -49 64 -355 520 -457 681 -70 111
-235 386 -235 391 0 3 -8 17 -18 31 -19 27 -51 84 -125 222 -22 41 -43 80 -47
85 -20 25 -245 487 -310 634 -215 493 -366 960 -435 1346 -24 138 -42 266 -51
370 -3 39 -7 86 -10 105 -5 40 -5 365 0 425 9 97 18 180 21 185 2 3 6 32 10
65 10 101 43 245 80 360 47 141 57 166 130 310 182 357 419 607 810 852 55 35
291 146 376 177 88 32 291 88 364 100 112 19 172 27 236 32 41 4 75 8 77 9 5
4 396 -4 417 -8z"/>
</g>
</svg>
